<svg width="33" height="34" viewBox="0 0 33 34" fill="none" xmlns="http://www.w3.org/2000/svg">
<path fill-rule="evenodd" clip-rule="evenodd" d="M20.0355 26.606C22.3153 25.926 24.2389 23.8619 25.3155 21.863C26.2599 20.0539 26.6646 17.9978 26.4788 15.9526C26.4473 15.6358 26.3813 15.3236 26.2822 15.0219C26.2354 14.8604 26.6355 14.3093 26.7923 14.0911L26.8404 14.026C27.8057 12.665 28.759 11.2951 29.7004 9.91622C29.8654 9.699 30.0066 9.46666 30.1239 9.21922L30.227 9.12289C30.2664 9.07189 30.2559 9.05016 30.1954 9.05772C28.5152 9.13044 26.7996 9.23575 25.0488 9.37364C24.474 9.42086 23.8874 9.43975 23.2888 9.4303C23.2275 9.43064 23.1665 9.42254 23.1073 9.40622C23.0727 9.39477 23.0427 9.37186 23.022 9.34105C21.6622 7.5688 16.8304 6.31364 13.9388 7.13955C12.5209 7.52469 11.1984 8.21492 10.0582 9.16478C8.91798 10.1146 7.98602 11.3026 7.32366 12.6504C6.41964 14.613 6.13405 16.8178 6.50691 18.956C6.78878 20.7452 5.24878 22.356 3.93703 23.733C3.49703 24.1934 3.07353 24.6226 2.76691 25.0278C2.73666 25.0845 2.74949 25.1086 2.80541 25.1001C3.67594 25.0488 4.54554 24.9817 5.41378 24.8989C6.78878 24.7686 8.16378 24.6467 9.54703 24.6552C9.71203 24.6552 9.82203 24.753 9.91691 24.8493L10.0503 24.9711C11.4854 26.0059 13.1301 26.6908 14.8601 26.9741C16.59 27.2573 18.3598 27.1314 20.0355 26.606ZM10.5288 21.7171C10.8588 21.7496 11.0953 21.8063 11.3387 22.0641C12.0279 22.7691 12.8479 23.3236 13.7498 23.6947C14.6517 24.0658 15.6169 24.2459 16.5878 24.224C17.5587 24.2022 18.5154 23.979 19.4007 23.5677C20.286 23.1565 21.0818 22.5656 21.7405 21.8304C22.5129 20.9236 23.0572 19.8352 23.3257 18.6608C23.5943 17.4865 23.5787 16.2622 23.2805 15.0956C23.2022 14.876 23.1238 14.6337 23.2022 14.4793L24.3338 12.4081C24.3304 12.3959 24.3231 12.3852 24.3132 12.3778C24.3032 12.3704 24.2911 12.3666 24.2788 12.3671C23.3988 12.4478 22.6522 12.4237 22.0238 12.3019C21.7089 12.2381 21.537 12.0426 21.3487 11.8415C20.4175 10.9716 19.289 10.357 18.067 10.0542C16.8449 9.75147 15.5686 9.77026 14.3554 10.1089C14.1822 10.1571 14.0337 10.2307 13.8755 10.303L13.6005 10.4319C10.537 11.6545 8.95028 15.0304 9.41366 18.2037C9.42878 18.3411 9.46866 18.4871 9.50716 18.633C9.59378 18.9886 9.68866 19.3696 9.57041 19.6856C9.3129 20.3724 8.96697 21.0204 8.54191 21.6122C8.54112 21.6289 8.54514 21.6455 8.55346 21.6599C8.56177 21.6742 8.57402 21.6857 8.58866 21.693C8.59691 21.7086 8.62028 21.7086 8.63541 21.7086C9.28716 21.6434 9.91553 21.6519 10.537 21.7086L10.5288 21.7171Z" fill="#04071D"/>
<path d="M4.71466 12.5462C4.97697 12.5533 5.23802 12.5063 5.4824 12.4078C5.72677 12.3093 5.94952 12.1614 6.13751 11.9727C6.3255 11.7841 6.47491 11.5586 6.57693 11.3095C6.67895 11.0604 6.73151 10.7928 6.73151 10.5225C6.73151 10.2521 6.67895 9.98449 6.57693 9.7354C6.47491 9.48631 6.3255 9.2608 6.13751 9.07218C5.94952 8.88355 5.72677 8.73563 5.4824 8.63714C5.23802 8.53866 4.97697 8.4916 4.71466 8.49876C4.20272 8.51271 3.7163 8.73205 3.359 9.11004C3.0017 9.48804 2.80176 9.99483 2.80176 10.5225C2.80176 11.0501 3.0017 11.5569 3.359 11.9349C3.7163 12.3129 4.20272 12.5322 4.71466 12.5462Z" fill="#04071D"/>
</svg>
